<svg width="760" height="458" viewBox="0 0 760 458" fill="none" xmlns="http://www.w3.org/2000/svg">
<g clip-path="url(#clip0_1469_1048)">
<rect x="155" y="-1" width="456" height="456" rx="228" fill="url(#paint0_linear_1469_1048)"/>
<mask id="path-2-outside-1_1469_1048" maskUnits="userSpaceOnUse" x="2" y="175" width="317" height="104" fill="black">
<rect fill="white" x="2" y="175" width="317" height="104"/>
<path d="M59.5064 206.646C59.1371 202.922 57.5521 200.029 54.7514 197.967C51.9508 195.905 48.1499 194.874 43.3487 194.874C40.0864 194.874 37.3319 195.335 35.0852 196.259C32.8385 197.151 31.1151 198.397 29.9148 199.998C28.7453 201.598 28.1605 203.414 28.1605 205.445C28.099 207.138 28.4529 208.615 29.2223 209.877C30.0225 211.139 31.1151 212.232 32.5 213.155C33.8849 214.047 35.4853 214.832 37.3011 215.509C39.117 216.156 41.0559 216.71 43.1179 217.171L51.6122 219.202C55.7363 220.126 59.5218 221.357 62.9688 222.896C66.4157 224.434 69.401 226.327 71.9247 228.574C74.4484 230.821 76.4027 233.467 77.7876 236.514C79.2034 239.561 79.9266 243.054 79.9574 246.994C79.9266 252.78 78.4493 257.796 75.5256 262.043C72.6326 266.26 68.447 269.537 62.9688 271.876C57.5213 274.185 50.9505 275.339 43.2564 275.339C35.6238 275.339 28.9761 274.169 23.3132 271.83C17.6811 269.491 13.2801 266.029 10.1101 261.443C6.97088 256.827 5.32434 251.118 5.17045 244.316H24.5135C24.7289 247.486 25.6368 250.133 27.2372 252.256C28.8684 254.349 31.0381 255.934 33.7464 257.011C36.4856 258.058 39.5786 258.581 43.0256 258.581C46.411 258.581 49.3501 258.089 51.843 257.104C54.3667 256.119 56.321 254.749 57.706 252.995C59.0909 251.241 59.7834 249.225 59.7834 246.947C59.7834 244.824 59.1525 243.039 57.8906 241.592C56.6596 240.146 54.8438 238.915 52.4432 237.899C50.0734 236.884 47.165 235.96 43.718 235.129L33.4233 232.544C25.4522 230.605 19.1584 227.574 14.5419 223.45C9.92543 219.326 7.63258 213.77 7.66335 206.784C7.63258 201.06 9.15601 196.058 12.2337 191.781C15.3421 187.503 19.6046 184.163 25.0213 181.763C30.438 179.362 36.5933 178.162 43.4872 178.162C50.5043 178.162 56.6288 179.362 61.8608 181.763C67.1236 184.163 71.2169 187.503 74.1406 191.781C77.0644 196.058 78.5724 201.013 78.6648 206.646H59.5064ZM130.75 203.091V217.864H88.0478V203.091H130.75ZM97.7424 186.102H117.409V252.21C117.409 254.026 117.686 255.442 118.24 256.457C118.794 257.442 119.563 258.135 120.548 258.535C121.563 258.935 122.733 259.135 124.056 259.135C124.98 259.135 125.903 259.058 126.826 258.904C127.749 258.719 128.457 258.581 128.95 258.489L132.043 273.123C131.058 273.431 129.673 273.785 127.888 274.185C126.103 274.616 123.933 274.877 121.379 274.969C116.639 275.154 112.484 274.523 108.914 273.077C105.375 271.63 102.62 269.384 100.651 266.337C98.681 263.29 97.7116 259.443 97.7424 254.795V186.102ZM163.781 275.339C159.257 275.339 155.225 274.554 151.686 272.984C148.147 271.384 145.346 269.03 143.284 265.921C141.253 262.782 140.237 258.873 140.237 254.195C140.237 250.256 140.96 246.947 142.407 244.27C143.853 241.592 145.823 239.438 148.316 237.807C150.809 236.176 153.64 234.945 156.81 234.114C160.011 233.283 163.366 232.698 166.874 232.359C170.998 231.929 174.322 231.528 176.846 231.159C179.369 230.759 181.201 230.174 182.339 229.405C183.478 228.635 184.047 227.497 184.047 225.989V225.712C184.047 222.788 183.124 220.526 181.278 218.925C179.462 217.325 176.876 216.525 173.522 216.525C169.983 216.525 167.166 217.31 165.074 218.879C162.981 220.418 161.596 222.357 160.919 224.696L142.73 223.219C143.653 218.91 145.469 215.186 148.177 212.047C150.886 208.877 154.379 206.446 158.657 204.753C162.965 203.029 167.951 202.168 173.614 202.168C177.554 202.168 181.324 202.629 184.925 203.553C188.556 204.476 191.772 205.907 194.573 207.846C197.404 209.785 199.636 212.278 201.267 215.325C202.898 218.341 203.714 221.957 203.714 226.173V274H185.063V264.167H184.509C183.37 266.383 181.847 268.337 179.939 270.03C178.031 271.692 175.738 273 173.06 273.954C170.383 274.877 167.29 275.339 163.781 275.339ZM169.413 261.766C172.306 261.766 174.861 261.197 177.077 260.058C179.292 258.889 181.031 257.319 182.293 255.349C183.555 253.38 184.186 251.148 184.186 248.656V241.131C183.57 241.531 182.724 241.9 181.647 242.239C180.6 242.546 179.416 242.839 178.092 243.116C176.769 243.362 175.445 243.593 174.122 243.808C172.799 243.993 171.598 244.162 170.521 244.316C168.213 244.655 166.197 245.193 164.474 245.932C162.75 246.67 161.411 247.671 160.457 248.933C159.503 250.164 159.026 251.702 159.026 253.549C159.026 256.227 159.996 258.273 161.934 259.689C163.904 261.074 166.397 261.766 169.413 261.766ZM218.971 274V203.091H238.037V215.463H238.776C240.068 211.062 242.238 207.738 245.285 205.491C248.332 203.214 251.84 202.075 255.811 202.075C256.795 202.075 257.857 202.137 258.996 202.26C260.135 202.383 261.135 202.552 261.997 202.768V220.218C261.073 219.941 259.796 219.695 258.165 219.479C256.534 219.264 255.041 219.156 253.687 219.156C250.794 219.156 248.209 219.787 245.931 221.049C243.685 222.28 241.9 224.004 240.576 226.219C239.284 228.435 238.637 230.99 238.637 233.883V274H218.971ZM313.436 203.091V217.864H270.733V203.091H313.436ZM280.428 186.102H300.094V252.21C300.094 254.026 300.371 255.442 300.925 256.457C301.479 257.442 302.248 258.135 303.233 258.535C304.249 258.935 305.418 259.135 306.742 259.135C307.665 259.135 308.588 259.058 309.512 258.904C310.435 258.719 311.143 258.581 311.635 258.489L314.728 273.123C313.743 273.431 312.359 273.785 310.574 274.185C308.788 274.616 306.619 274.877 304.064 274.969C299.325 275.154 295.17 274.523 291.6 273.077C288.06 271.63 285.306 269.384 283.336 266.337C281.367 263.29 280.397 259.443 280.428 254.795V186.102Z"/>
</mask>
<path d="M59.5064 206.646C59.1371 202.922 57.5521 200.029 54.7514 197.967C51.9508 195.905 48.1499 194.874 43.3487 194.874C40.0864 194.874 37.3319 195.335 35.0852 196.259C32.8385 197.151 31.1151 198.397 29.9148 199.998C28.7453 201.598 28.1605 203.414 28.1605 205.445C28.099 207.138 28.4529 208.615 29.2223 209.877C30.0225 211.139 31.1151 212.232 32.5 213.155C33.8849 214.047 35.4853 214.832 37.3011 215.509C39.117 216.156 41.0559 216.71 43.1179 217.171L51.6122 219.202C55.7363 220.126 59.5218 221.357 62.9688 222.896C66.4157 224.434 69.401 226.327 71.9247 228.574C74.4484 230.821 76.4027 233.467 77.7876 236.514C79.2034 239.561 79.9266 243.054 79.9574 246.994C79.9266 252.78 78.4493 257.796 75.5256 262.043C72.6326 266.26 68.447 269.537 62.9688 271.876C57.5213 274.185 50.9505 275.339 43.2564 275.339C35.6238 275.339 28.9761 274.169 23.3132 271.83C17.6811 269.491 13.2801 266.029 10.1101 261.443C6.97088 256.827 5.32434 251.118 5.17045 244.316H24.5135C24.7289 247.486 25.6368 250.133 27.2372 252.256C28.8684 254.349 31.0381 255.934 33.7464 257.011C36.4856 258.058 39.5786 258.581 43.0256 258.581C46.411 258.581 49.3501 258.089 51.843 257.104C54.3667 256.119 56.321 254.749 57.706 252.995C59.0909 251.241 59.7834 249.225 59.7834 246.947C59.7834 244.824 59.1525 243.039 57.8906 241.592C56.6596 240.146 54.8438 238.915 52.4432 237.899C50.0734 236.884 47.165 235.96 43.718 235.129L33.4233 232.544C25.4522 230.605 19.1584 227.574 14.5419 223.45C9.92543 219.326 7.63258 213.77 7.66335 206.784C7.63258 201.06 9.15601 196.058 12.2337 191.781C15.3421 187.503 19.6046 184.163 25.0213 181.763C30.438 179.362 36.5933 178.162 43.4872 178.162C50.5043 178.162 56.6288 179.362 61.8608 181.763C67.1236 184.163 71.2169 187.503 74.1406 191.781C77.0644 196.058 78.5724 201.013 78.6648 206.646H59.5064ZM130.75 203.091V217.864H88.0478V203.091H130.75ZM97.7424 186.102H117.409V252.21C117.409 254.026 117.686 255.442 118.24 256.457C118.794 257.442 119.563 258.135 120.548 258.535C121.563 258.935 122.733 259.135 124.056 259.135C124.98 259.135 125.903 259.058 126.826 258.904C127.749 258.719 128.457 258.581 128.95 258.489L132.043 273.123C131.058 273.431 129.673 273.785 127.888 274.185C126.103 274.616 123.933 274.877 121.379 274.969C116.639 275.154 112.484 274.523 108.914 273.077C105.375 271.63 102.62 269.384 100.651 266.337C98.681 263.29 97.7116 259.443 97.7424 254.795V186.102ZM163.781 275.339C159.257 275.339 155.225 274.554 151.686 272.984C148.147 271.384 145.346 269.03 143.284 265.921C141.253 262.782 140.237 258.873 140.237 254.195C140.237 250.256 140.96 246.947 142.407 244.27C143.853 241.592 145.823 239.438 148.316 237.807C150.809 236.176 153.64 234.945 156.81 234.114C160.011 233.283 163.366 232.698 166.874 232.359C170.998 231.929 174.322 231.528 176.846 231.159C179.369 230.759 181.201 230.174 182.339 229.405C183.478 228.635 184.047 227.497 184.047 225.989V225.712C184.047 222.788 183.124 220.526 181.278 218.925C179.462 217.325 176.876 216.525 173.522 216.525C169.983 216.525 167.166 217.31 165.074 218.879C162.981 220.418 161.596 222.357 160.919 224.696L142.73 223.219C143.653 218.91 145.469 215.186 148.177 212.047C150.886 208.877 154.379 206.446 158.657 204.753C162.965 203.029 167.951 202.168 173.614 202.168C177.554 202.168 181.324 202.629 184.925 203.553C188.556 204.476 191.772 205.907 194.573 207.846C197.404 209.785 199.636 212.278 201.267 215.325C202.898 218.341 203.714 221.957 203.714 226.173V274H185.063V264.167H184.509C183.37 266.383 181.847 268.337 179.939 270.03C178.031 271.692 175.738 273 173.06 273.954C170.383 274.877 167.29 275.339 163.781 275.339ZM169.413 261.766C172.306 261.766 174.861 261.197 177.077 260.058C179.292 258.889 181.031 257.319 182.293 255.349C183.555 253.38 184.186 251.148 184.186 248.656V241.131C183.57 241.531 182.724 241.9 181.647 242.239C180.6 242.546 179.416 242.839 178.092 243.116C176.769 243.362 175.445 243.593 174.122 243.808C172.799 243.993 171.598 244.162 170.521 244.316C168.213 244.655 166.197 245.193 164.474 245.932C162.75 246.67 161.411 247.671 160.457 248.933C159.503 250.164 159.026 251.702 159.026 253.549C159.026 256.227 159.996 258.273 161.934 259.689C163.904 261.074 166.397 261.766 169.413 261.766ZM218.971 274V203.091H238.037V215.463H238.776C240.068 211.062 242.238 207.738 245.285 205.491C248.332 203.214 251.84 202.075 255.811 202.075C256.795 202.075 257.857 202.137 258.996 202.26C260.135 202.383 261.135 202.552 261.997 202.768V220.218C261.073 219.941 259.796 219.695 258.165 219.479C256.534 219.264 255.041 219.156 253.687 219.156C250.794 219.156 248.209 219.787 245.931 221.049C243.685 222.28 241.9 224.004 240.576 226.219C239.284 228.435 238.637 230.99 238.637 233.883V274H218.971ZM313.436 203.091V217.864H270.733V203.091H313.436ZM280.428 186.102H300.094V252.21C300.094 254.026 300.371 255.442 300.925 256.457C301.479 257.442 302.248 258.135 303.233 258.535C304.249 258.935 305.418 259.135 306.742 259.135C307.665 259.135 308.588 259.058 309.512 258.904C310.435 258.719 311.143 258.581 311.635 258.489L314.728 273.123C313.743 273.431 312.359 273.785 310.574 274.185C308.788 274.616 306.619 274.877 304.064 274.969C299.325 275.154 295.17 274.523 291.6 273.077C288.06 271.63 285.306 269.384 283.336 266.337C281.367 263.29 280.397 259.443 280.428 254.795V186.102Z" fill="#FBFDFC"/>
<path d="M59.5064 206.646L56.521 206.942L56.7892 209.646H59.5064V206.646ZM35.0852 196.259L36.1928 199.047L36.2092 199.04L36.2256 199.033L35.0852 196.259ZM29.9148 199.998L27.5148 198.198L27.5036 198.213L27.4926 198.228L29.9148 199.998ZM28.1605 205.445L31.1585 205.554L31.1605 205.5V205.445H28.1605ZM29.2223 209.877L26.6609 211.439L26.6746 211.461L26.6888 211.484L29.2223 209.877ZM32.5 213.155L30.8359 215.651L30.8553 215.664L30.8749 215.677L32.5 213.155ZM37.3011 215.509L36.253 218.32L36.274 218.328L36.2952 218.336L37.3011 215.509ZM43.1179 217.171L43.8156 214.253L43.7945 214.248L43.7733 214.244L43.1179 217.171ZM51.6122 219.202L50.9145 222.12L50.9356 222.125L50.9568 222.13L51.6122 219.202ZM62.9688 222.896L61.7458 225.635L61.7458 225.635L62.9688 222.896ZM71.9247 228.574L73.9195 226.333L73.9195 226.333L71.9247 228.574ZM77.7876 236.514L75.0565 237.756L75.0617 237.767L75.067 237.778L77.7876 236.514ZM79.9574 246.994L82.9573 247.01L82.9574 246.99L82.9573 246.97L79.9574 246.994ZM75.5256 262.043L73.0545 260.342L73.0519 260.346L75.5256 262.043ZM62.9688 271.876L64.1392 274.639L64.1468 274.635L62.9688 271.876ZM23.3132 271.83L22.1626 274.601L22.1679 274.603L23.3132 271.83ZM10.1101 261.443L7.62931 263.13L7.63578 263.14L7.64232 263.149L10.1101 261.443ZM5.17045 244.316V241.316H2.10181L2.17122 244.384L5.17045 244.316ZM24.5135 244.316L27.5066 244.113L27.3165 241.316H24.5135V244.316ZM27.2372 252.256L24.8414 254.062L24.8561 254.081L24.871 254.101L27.2372 252.256ZM33.7464 257.011L32.6377 259.799L32.6567 259.807L32.6758 259.814L33.7464 257.011ZM51.843 257.104L50.7524 254.309L50.7408 254.314L51.843 257.104ZM57.706 252.995L60.0606 254.854L60.0606 254.854L57.706 252.995ZM57.8906 241.592L55.606 243.537L55.6179 243.551L55.6299 243.564L57.8906 241.592ZM52.4432 237.899L51.2614 240.657L51.2743 240.662L52.4432 237.899ZM43.718 235.129L42.9874 238.039L43.0012 238.042L43.015 238.046L43.718 235.129ZM33.4233 232.544L34.154 229.634L34.1432 229.632L34.1324 229.629L33.4233 232.544ZM14.5419 223.45L12.5433 225.687L12.5433 225.687L14.5419 223.45ZM7.66335 206.784L10.6633 206.797L10.6634 206.783L10.6633 206.768L7.66335 206.784ZM12.2337 191.781L9.8067 190.017L9.80254 190.023L9.7984 190.029L12.2337 191.781ZM61.8608 181.763L60.6097 184.489L60.6158 184.492L61.8608 181.763ZM74.1406 191.781L71.6638 193.473L71.6638 193.473L74.1406 191.781ZM78.6648 206.646V209.646H81.7144L81.6644 206.596L78.6648 206.646ZM62.4917 206.35C62.0457 201.852 60.0714 198.158 56.5301 195.551L52.9727 200.382C55.0327 201.899 56.2284 203.991 56.521 206.942L62.4917 206.35ZM56.5301 195.551C53.0505 192.989 48.5516 191.874 43.3487 191.874V197.874C47.7482 197.874 50.851 198.82 52.9727 200.382L56.5301 195.551ZM43.3487 191.874C39.8217 191.874 36.6544 192.37 33.9449 193.484L36.2256 199.033C38.0094 198.3 40.3511 197.874 43.3487 197.874V191.874ZM33.9776 193.47C31.3249 194.524 29.1098 196.071 27.5148 198.198L32.3148 201.798C33.1203 200.724 34.3522 199.778 36.1928 199.047L33.9776 193.47ZM27.4926 198.228C25.9378 200.355 25.1605 202.795 25.1605 205.445H31.1605C31.1605 204.034 31.5528 202.841 32.3369 201.768L27.4926 198.228ZM25.1625 205.336C25.0828 207.528 25.5424 209.605 26.6609 211.439L31.7837 208.315C31.3634 207.626 31.1151 206.748 31.1585 205.554L25.1625 205.336ZM26.6888 211.484C27.7378 213.138 29.1421 214.522 30.8359 215.651L34.1641 210.659C33.088 209.941 32.3072 209.14 31.7558 208.271L26.6888 211.484ZM30.8749 215.677C32.4696 216.704 34.2694 217.581 36.253 218.32L38.3493 212.698C36.7013 212.084 35.3003 211.39 34.1251 210.633L30.8749 215.677ZM36.2952 218.336C38.236 219.026 40.2929 219.613 42.4625 220.099L43.7733 214.244C41.8189 213.806 39.9979 213.285 38.3071 212.683L36.2952 218.336ZM42.4202 220.089L50.9145 222.12L52.3099 216.285L43.8156 214.253L42.4202 220.089ZM50.9568 222.13C54.9087 223.015 58.5014 224.187 61.7458 225.635L64.1917 220.156C60.5421 218.527 56.5639 217.237 52.2676 216.275L50.9568 222.13ZM61.7458 225.635C64.944 227.063 67.6616 228.795 69.9299 230.815L73.9195 226.333C71.1405 223.859 67.8874 221.806 64.1917 220.156L61.7458 225.635ZM69.9299 230.815C72.1443 232.786 73.8464 235.093 75.0565 237.756L80.5187 235.273C78.959 231.841 76.7525 228.855 73.9195 226.333L69.9299 230.815ZM75.067 237.778C76.2735 240.375 76.9295 243.433 76.9575 247.017L82.9573 246.97C82.9237 242.675 82.1332 238.747 80.5083 235.25L75.067 237.778ZM76.9574 246.978C76.9295 252.238 75.596 256.65 73.0545 260.342L77.9967 263.744C81.3027 258.942 82.9238 253.321 82.9573 247.01L76.9574 246.978ZM73.0519 260.346C70.5314 264.019 66.8331 266.964 61.7907 269.117L64.1468 274.635C70.0609 272.11 74.7338 268.5 77.9993 263.741L73.0519 260.346ZM61.7983 269.114C56.8143 271.226 50.6637 272.339 43.2564 272.339V278.339C51.2373 278.339 58.2283 277.143 64.1392 274.639L61.7983 269.114ZM43.2564 272.339C35.9234 272.339 29.6808 271.215 24.4585 269.057L22.1679 274.603C28.2713 277.124 35.3242 278.339 43.2564 278.339V272.339ZM24.4638 269.06C19.3119 266.92 15.3896 263.805 12.5779 259.737L7.64232 263.149C11.1706 268.253 16.0503 272.062 22.1626 274.601L24.4638 269.06ZM12.5909 259.756C9.84188 255.714 8.31336 250.599 8.16969 244.248L2.17122 244.384C2.33531 251.637 4.09988 257.94 7.62931 263.13L12.5909 259.756ZM5.17045 247.316H24.5135V241.316H5.17045V247.316ZM21.5204 244.519C21.7675 248.155 22.8274 251.39 24.8414 254.062L29.633 250.451C28.4463 248.876 27.6904 246.817 27.5066 244.113L21.5204 244.519ZM24.871 254.101C26.8617 256.655 29.4841 258.545 32.6377 259.799L34.8552 254.224C32.5922 253.324 30.875 252.044 29.6034 250.412L24.871 254.101ZM32.6758 259.814C35.8111 261.012 39.2757 261.581 43.0256 261.581V255.581C39.8815 255.581 37.16 255.104 34.8171 254.209L32.6758 259.814ZM43.0256 261.581C46.693 261.581 50.0226 261.049 52.9453 259.894L50.7408 254.314C48.6777 255.129 46.1289 255.581 43.0256 255.581V261.581ZM52.9337 259.898C55.8491 258.761 58.2814 257.108 60.0606 254.854L55.3513 251.136C54.3607 252.391 52.8844 253.477 50.7524 254.309L52.9337 259.898ZM60.0606 254.854C61.8721 252.559 62.7834 249.886 62.7834 246.947H56.7834C56.7834 248.564 56.3097 249.922 55.3513 251.136L60.0606 254.854ZM62.7834 246.947C62.7834 244.182 61.9416 241.672 60.1513 239.62L55.6299 243.564C56.3633 244.405 56.7834 245.466 56.7834 246.947H62.7834ZM60.1752 239.648C58.5499 237.738 56.2915 236.27 53.6121 235.136L51.2743 240.662C53.396 241.56 54.7692 242.553 55.606 243.537L60.1752 239.648ZM53.6249 235.142C51.055 234.04 47.9757 233.07 44.4211 232.213L43.015 238.046C46.3543 238.851 49.0917 239.727 51.2614 240.657L53.6249 235.142ZM44.4487 232.22L34.154 229.634L32.6926 235.454L42.9874 238.039L44.4487 232.22ZM34.1324 229.629C26.4903 227.77 20.6893 224.919 16.5405 221.212L12.5433 225.687C17.6275 230.229 24.4141 233.44 32.7142 235.459L34.1324 229.629ZM16.5405 221.212C12.6509 217.738 10.6358 213.048 10.6633 206.797L4.66338 206.771C4.62936 214.493 7.19997 220.914 12.5433 225.687L16.5405 221.212ZM10.6633 206.768C10.6356 201.62 11.994 197.251 14.6689 193.533L9.7984 190.029C6.31799 194.866 4.62952 200.499 4.6634 206.8L10.6633 206.768ZM14.6606 193.544C17.4224 189.743 21.2437 186.718 26.2368 184.506L23.8058 179.02C17.9656 181.608 13.2618 185.262 9.8067 190.017L14.6606 193.544ZM26.2368 184.506C31.2132 182.3 36.9441 181.162 43.4872 181.162V175.162C36.2425 175.162 29.6628 176.424 23.8058 179.02L26.2368 184.506ZM43.4872 181.162C50.165 181.162 55.8465 182.304 60.6097 184.489L63.1119 179.036C57.4111 176.42 50.8435 175.162 43.4872 175.162V181.162ZM60.6158 184.492C65.4406 186.693 69.0834 189.698 71.6638 193.473L76.6174 190.088C73.3503 185.307 68.8066 181.634 63.1058 179.033L60.6158 184.492ZM71.6638 193.473C74.2273 197.224 75.5816 201.597 75.6652 206.695L81.6644 206.596C81.5633 200.43 79.9015 194.893 76.6174 190.088L71.6638 193.473ZM78.6648 203.646H59.5064V209.646H78.6648V203.646ZM130.75 203.091H133.75V200.091H130.75V203.091ZM130.75 217.864V220.864H133.75V217.864H130.75ZM88.0478 217.864H85.0478V220.864H88.0478V217.864ZM88.0478 203.091V200.091H85.0478V203.091H88.0478ZM97.7424 186.102V183.102H94.7424V186.102H97.7424ZM117.409 186.102H120.409V183.102H117.409V186.102ZM118.24 256.457L115.606 257.894L115.615 257.911L115.625 257.928L118.24 256.457ZM120.548 258.535L119.419 261.314L119.433 261.32L119.448 261.326L120.548 258.535ZM126.826 258.904L127.319 261.863L127.367 261.855L127.415 261.846L126.826 258.904ZM128.95 258.489L131.885 257.868L131.279 255L128.397 255.54L128.95 258.489ZM132.043 273.123L132.938 275.986L135.542 275.172L134.978 272.503L132.043 273.123ZM127.888 274.185L127.232 271.257L127.208 271.263L127.184 271.268L127.888 274.185ZM121.379 274.969L121.27 271.971L121.262 271.972L121.379 274.969ZM108.914 273.077L107.779 275.854L107.788 275.857L108.914 273.077ZM100.651 266.337L103.17 264.708L103.17 264.708L100.651 266.337ZM97.7424 254.795L100.742 254.815L100.742 254.805V254.795H97.7424ZM127.75 203.091V217.864H133.75V203.091H127.75ZM130.75 214.864H88.0478V220.864H130.75V214.864ZM91.0478 217.864V203.091H85.0478V217.864H91.0478ZM88.0478 206.091H130.75V200.091H88.0478V206.091ZM97.7424 189.102H117.409V183.102H97.7424V189.102ZM114.409 186.102V252.21H120.409V186.102H114.409ZM114.409 252.21C114.409 254.269 114.712 256.256 115.606 257.894L120.873 255.021C120.659 254.628 120.409 253.783 120.409 252.21H114.409ZM115.625 257.928C116.489 259.465 117.764 260.642 119.419 261.314L121.677 255.755C121.362 255.628 121.098 255.42 120.854 254.987L115.625 257.928ZM119.448 261.326C120.88 261.89 122.434 262.135 124.056 262.135V256.135C123.032 256.135 122.247 255.98 121.647 255.744L119.448 261.326ZM124.056 262.135C125.147 262.135 126.235 262.044 127.319 261.863L126.333 255.945C125.57 256.072 124.812 256.135 124.056 256.135V262.135ZM127.415 261.846C128.334 261.662 129.028 261.526 129.503 261.437L128.397 255.54C127.886 255.636 127.165 255.777 126.238 255.962L127.415 261.846ZM126.015 259.109L129.108 273.743L134.978 272.503L131.885 257.868L126.015 259.109ZM131.148 270.259C130.28 270.531 128.988 270.864 127.232 271.257L128.544 277.112C130.358 276.705 131.836 276.33 132.938 275.986L131.148 270.259ZM127.184 271.268C125.653 271.638 123.696 271.884 121.27 271.971L121.487 277.968C124.171 277.871 126.552 277.593 128.592 277.101L127.184 271.268ZM121.262 271.972C116.852 272.144 113.136 271.55 110.041 270.296L107.788 275.857C111.832 277.496 116.427 278.165 121.496 277.967L121.262 271.972ZM110.049 270.3C107.046 269.072 104.788 267.211 103.17 264.708L98.1314 267.965C100.453 271.556 103.704 274.188 107.779 275.854L110.049 270.3ZM103.17 264.708C101.596 262.273 100.714 259.041 100.742 254.815L94.7424 254.776C94.7089 259.845 95.7661 264.307 98.1314 267.965L103.17 264.708ZM100.742 254.795V186.102H94.7424V254.795H100.742ZM151.686 272.984L150.45 275.718L150.46 275.722L150.47 275.727L151.686 272.984ZM143.284 265.921L140.765 267.551L140.775 267.565L140.784 267.58L143.284 265.921ZM142.407 244.27L139.767 242.844L139.767 242.844L142.407 244.27ZM148.316 237.807L146.673 235.296L146.673 235.296L148.316 237.807ZM156.81 234.114L156.056 231.21L156.049 231.212L156.81 234.114ZM166.874 232.359L167.162 235.346L167.174 235.344L167.186 235.343L166.874 232.359ZM176.846 231.159L177.28 234.127L177.298 234.125L177.315 234.122L176.846 231.159ZM182.339 229.405L180.66 226.919L180.66 226.919L182.339 229.405ZM181.278 218.925L179.294 221.176L179.303 221.184L179.313 221.192L181.278 218.925ZM165.074 218.879L166.851 221.296L166.862 221.288L166.874 221.279L165.074 218.879ZM160.919 224.696L160.676 227.686L163.119 227.885L163.801 225.53L160.919 224.696ZM142.73 223.219L139.797 222.59L139.08 225.932L142.487 226.209L142.73 223.219ZM148.177 212.047L150.449 214.007L150.454 214.001L150.458 213.996L148.177 212.047ZM158.657 204.753L159.761 207.542L159.771 207.538L158.657 204.753ZM184.925 203.553L184.179 206.459L184.185 206.46L184.925 203.553ZM194.573 207.846L192.865 210.312L192.872 210.317L192.878 210.321L194.573 207.846ZM201.267 215.325L198.622 216.741L198.628 216.752L201.267 215.325ZM203.714 274V277H206.714V274H203.714ZM185.063 274H182.063V277H185.063V274ZM185.063 264.167H188.063V261.167H185.063V264.167ZM184.509 264.167V261.167H182.678L181.841 262.796L184.509 264.167ZM179.939 270.03L181.909 272.292L181.919 272.283L181.93 272.274L179.939 270.03ZM173.06 273.954L174.038 276.79L174.053 276.785L174.067 276.78L173.06 273.954ZM177.077 260.058L178.448 262.727L178.462 262.719L178.477 262.711L177.077 260.058ZM182.293 255.349L179.767 253.731L179.767 253.731L182.293 255.349ZM184.186 241.131H187.186V235.603L182.551 238.615L184.186 241.131ZM181.647 242.239L182.493 245.117L182.52 245.109L182.546 245.101L181.647 242.239ZM178.092 243.116L178.641 246.065L178.674 246.059L178.707 246.052L178.092 243.116ZM174.122 243.808L174.537 246.779L174.57 246.775L174.604 246.769L174.122 243.808ZM170.521 244.316L170.097 241.346L170.086 241.348L170.521 244.316ZM164.474 245.932L165.655 248.689L165.655 248.689L164.474 245.932ZM160.457 248.933L162.828 250.77L162.839 250.756L162.85 250.742L160.457 248.933ZM161.934 259.689L160.165 262.112L160.187 262.128L160.209 262.143L161.934 259.689ZM163.781 272.339C159.606 272.339 155.999 271.616 152.902 270.242L150.47 275.727C154.451 277.492 158.908 278.339 163.781 278.339V272.339ZM152.922 270.251C149.874 268.873 147.521 266.881 145.784 264.263L140.784 267.58C143.171 271.178 146.419 273.895 150.45 275.718L152.922 270.251ZM145.803 264.291C144.156 261.747 143.237 258.44 143.237 254.195H137.237C137.237 259.307 138.349 263.817 140.765 267.551L145.803 264.291ZM143.237 254.195C143.237 250.611 143.896 247.825 145.046 245.696L139.767 242.844C138.025 246.07 137.237 249.9 137.237 254.195H143.237ZM145.046 245.696C146.261 243.447 147.892 241.669 149.958 240.317L146.673 235.296C143.754 237.207 141.446 239.738 139.767 242.844L145.046 245.696ZM149.958 240.317C152.155 238.88 154.683 237.773 157.571 237.016L156.049 231.212C152.597 232.117 149.463 233.471 146.673 235.296L149.958 240.317ZM157.564 237.017C160.602 236.229 163.801 235.67 167.162 235.346L166.586 229.373C162.931 229.726 159.42 230.337 156.056 231.21L157.564 237.017ZM167.186 235.343C171.329 234.91 174.699 234.505 177.28 234.127L176.411 228.191C173.946 228.552 170.667 228.947 166.562 229.376L167.186 235.343ZM177.315 234.122C179.963 233.702 182.325 233.035 184.019 231.891L180.66 226.919C180.077 227.313 178.776 227.816 176.376 228.196L177.315 234.122ZM184.019 231.891C186.074 230.502 187.047 228.379 187.047 225.989H181.047C181.047 226.614 180.882 226.769 180.66 226.919L184.019 231.891ZM187.047 225.989V225.712H181.047V225.989H187.047ZM187.047 225.712C187.047 222.105 185.876 218.941 183.242 216.658L179.313 221.192C180.372 222.111 181.047 223.47 181.047 225.712H187.047ZM183.261 216.675C180.718 214.433 177.325 213.525 173.522 213.525V219.525C176.428 219.525 178.206 220.217 179.294 221.176L183.261 216.675ZM173.522 213.525C169.56 213.525 166.042 214.403 163.274 216.479L166.874 221.279C168.291 220.216 170.405 219.525 173.522 219.525V213.525ZM163.297 216.462C160.709 218.365 158.911 220.844 158.037 223.862L163.801 225.53C164.281 223.87 165.253 222.471 166.851 221.296L163.297 216.462ZM161.162 221.706L142.973 220.229L142.487 226.209L160.676 227.686L161.162 221.706ZM145.663 223.847C146.488 219.999 148.09 216.741 150.449 214.007L145.906 210.087C142.848 213.631 140.818 217.821 139.797 222.59L145.663 223.847ZM150.458 213.996C152.817 211.235 155.89 209.074 159.761 207.542L157.553 201.963C152.868 203.817 148.955 206.519 145.896 210.098L150.458 213.996ZM159.771 207.538C163.657 205.984 168.251 205.168 173.614 205.168V199.168C167.651 199.168 162.274 200.075 157.543 201.967L159.771 207.538ZM173.614 205.168C177.317 205.168 180.836 205.601 184.179 206.459L185.67 200.647C181.811 199.657 177.79 199.168 173.614 199.168V205.168ZM184.185 206.46C187.505 207.304 190.387 208.596 192.865 210.312L196.281 205.379C193.158 203.217 189.607 201.648 185.664 200.645L184.185 206.46ZM192.878 210.321C195.31 211.986 197.216 214.115 198.622 216.74L203.912 213.909C202.055 210.441 199.499 207.583 196.268 205.371L192.878 210.321ZM198.628 216.752C199.974 219.24 200.714 222.342 200.714 226.173H206.714C206.714 221.572 205.822 217.442 203.906 213.897L198.628 216.752ZM200.714 226.173V274H206.714V226.173H200.714ZM203.714 271H185.063V277H203.714V271ZM188.063 274V264.167H182.063V274H188.063ZM185.063 261.167H184.509V267.167H185.063V261.167ZM181.841 262.796C180.876 264.673 179.585 266.333 177.948 267.786L181.93 272.274C184.109 270.341 185.865 268.092 187.177 265.538L181.841 262.796ZM177.968 267.768C176.376 269.154 174.421 270.284 172.053 271.128L174.067 276.78C177.055 275.715 179.685 274.229 181.909 272.292L177.968 267.768ZM172.082 271.118C169.784 271.91 167.033 272.339 163.781 272.339V278.339C167.546 278.339 170.981 277.844 174.038 276.79L172.082 271.118ZM169.413 264.766C172.706 264.766 175.744 264.116 178.448 262.727L175.705 257.39C173.977 258.278 171.906 258.766 169.413 258.766V264.766ZM178.477 262.711C181.117 261.318 183.258 259.405 184.819 256.968L179.767 253.731C178.805 255.233 177.467 256.46 175.676 257.405L178.477 262.711ZM184.819 256.968C186.411 254.483 187.186 251.683 187.186 248.656H181.186C181.186 250.614 180.699 252.277 179.767 253.731L184.819 256.968ZM187.186 248.656V241.131H181.186V248.656H187.186ZM182.551 238.615C182.251 238.81 181.688 239.081 180.747 239.377L182.546 245.101C183.76 244.719 184.889 244.252 185.821 243.646L182.551 238.615ZM180.8 239.361C179.846 239.641 178.741 239.915 177.478 240.179L178.707 246.052C180.091 245.763 181.355 245.452 182.493 245.117L180.8 239.361ZM177.543 240.166C176.242 240.408 174.941 240.635 173.64 240.847L174.604 246.769C175.95 246.55 177.295 246.315 178.641 246.065L177.543 240.166ZM173.707 240.837C172.381 241.022 171.178 241.192 170.097 241.346L170.945 247.286C172.019 247.133 173.216 246.964 174.537 246.779L173.707 240.837ZM170.086 241.348C167.58 241.715 165.304 242.312 163.292 243.174L165.655 248.689C167.09 248.074 168.845 247.594 170.956 247.284L170.086 241.348ZM163.292 243.174C161.178 244.08 159.387 245.374 158.064 247.123L162.85 250.742C163.436 249.967 164.322 249.261 165.655 248.689L163.292 243.174ZM158.086 247.095C156.652 248.945 156.026 251.165 156.026 253.549H162.026C162.026 252.24 162.354 251.382 162.828 250.77L158.086 247.095ZM156.026 253.549C156.026 257.057 157.355 260.06 160.165 262.112L163.704 257.266C162.636 256.486 162.026 255.396 162.026 253.549H156.026ZM160.209 262.143C162.799 263.964 165.937 264.766 169.413 264.766V258.766C166.858 258.766 165.01 258.184 163.66 257.235L160.209 262.143ZM218.971 274H215.971V277H218.971V274ZM218.971 203.091V200.091H215.971V203.091H218.971ZM238.037 203.091H241.037V200.091H238.037V203.091ZM238.037 215.463H235.037V218.463H238.037V215.463ZM238.776 215.463V218.463H241.021L241.654 216.308L238.776 215.463ZM245.285 205.491L247.065 207.906L247.073 207.9L247.081 207.894L245.285 205.491ZM258.996 202.26L259.318 199.277L259.318 199.277L258.996 202.26ZM261.997 202.768H264.997V200.425L262.724 199.857L261.997 202.768ZM261.997 220.218L261.135 223.092L264.997 224.25V220.218H261.997ZM245.931 221.049L247.373 223.68L247.385 223.673L245.931 221.049ZM240.576 226.219L238.001 224.681L237.993 224.695L237.985 224.708L240.576 226.219ZM238.637 274V277H241.637V274H238.637ZM221.971 274V203.091H215.971V274H221.971ZM218.971 206.091H238.037V200.091H218.971V206.091ZM235.037 203.091V215.463H241.037V203.091H235.037ZM238.037 218.463H238.776V212.463H238.037V218.463ZM241.654 216.308C242.802 212.4 244.65 209.687 247.065 207.906L243.505 203.077C239.826 205.789 237.335 209.724 235.897 214.618L241.654 216.308ZM247.081 207.894C249.586 206.022 252.458 205.075 255.811 205.075V199.075C251.223 199.075 247.078 200.406 243.489 203.089L247.081 207.894ZM255.811 205.075C256.672 205.075 257.625 205.129 258.673 205.243L259.318 199.277C258.089 199.144 256.919 199.075 255.811 199.075V205.075ZM258.673 205.243C259.712 205.355 260.572 205.504 261.269 205.678L262.724 199.857C261.698 199.601 260.557 199.411 259.318 199.277L258.673 205.243ZM258.997 202.768V220.218H264.997V202.768H258.997ZM262.859 217.345C261.712 217.001 260.254 216.729 258.558 216.505L257.772 222.454C259.339 222.66 260.435 222.882 261.135 223.092L262.859 217.345ZM258.558 216.505C256.823 216.276 255.197 216.156 253.687 216.156V222.156C254.885 222.156 256.245 222.252 257.772 222.454L258.558 216.505ZM253.687 216.156C250.343 216.156 247.248 216.89 244.477 218.425L247.385 223.673C249.17 222.684 251.245 222.156 253.687 222.156V216.156ZM244.49 218.418C241.771 219.908 239.596 222.01 238.001 224.681L243.152 227.758C244.203 225.997 245.598 224.652 247.373 223.68L244.49 218.418ZM237.985 224.708C236.392 227.439 235.637 230.528 235.637 233.883H241.637C241.637 231.452 242.175 229.432 243.168 227.731L237.985 224.708ZM235.637 233.883V274H241.637V233.883H235.637ZM238.637 271H218.971V277H238.637V271ZM313.436 203.091H316.436V200.091H313.436V203.091ZM313.436 217.864V220.864H316.436V217.864H313.436ZM270.733 217.864H267.733V220.864H270.733V217.864ZM270.733 203.091V200.091H267.733V203.091H270.733ZM280.428 186.102V183.102H277.428V186.102H280.428ZM300.094 186.102H303.094V183.102H300.094V186.102ZM300.925 256.457L298.291 257.894L298.301 257.911L298.31 257.928L300.925 256.457ZM303.233 258.535L302.104 261.314L302.119 261.32L302.134 261.326L303.233 258.535ZM309.512 258.904L310.005 261.863L310.053 261.855L310.1 261.846L309.512 258.904ZM311.635 258.489L314.57 257.868L313.964 255L311.082 255.54L311.635 258.489ZM314.728 273.123L315.623 275.986L318.228 275.172L317.663 272.503L314.728 273.123ZM310.574 274.185L309.917 271.257L309.893 271.263L309.87 271.268L310.574 274.185ZM304.064 274.969L303.956 271.971L303.947 271.972L304.064 274.969ZM291.6 273.077L290.465 275.854L290.473 275.857L291.6 273.077ZM283.336 266.337L285.856 264.708L285.856 264.708L283.336 266.337ZM280.428 254.795L283.428 254.815L283.428 254.805V254.795H280.428ZM310.436 203.091V217.864H316.436V203.091H310.436ZM313.436 214.864H270.733V220.864H313.436V214.864ZM273.733 217.864V203.091H267.733V217.864H273.733ZM270.733 206.091H313.436V200.091H270.733V206.091ZM280.428 189.102H300.094V183.102H280.428V189.102ZM297.094 186.102V252.21H303.094V186.102H297.094ZM297.094 252.21C297.094 254.269 297.398 256.256 298.291 257.894L303.559 255.021C303.344 254.628 303.094 253.783 303.094 252.21H297.094ZM298.31 257.928C299.175 259.465 300.449 260.642 302.104 261.314L304.362 255.755C304.048 255.628 303.783 255.42 303.54 254.987L298.31 257.928ZM302.134 261.326C303.565 261.89 305.12 262.135 306.742 262.135V256.135C305.717 256.135 304.933 255.98 304.333 255.744L302.134 261.326ZM306.742 262.135C307.833 262.135 308.921 262.044 310.005 261.863L309.019 255.945C308.256 256.072 307.498 256.135 306.742 256.135V262.135ZM310.1 261.846C311.02 261.662 311.714 261.526 312.188 261.437L311.082 255.54C310.572 255.636 309.85 255.777 308.923 255.962L310.1 261.846ZM308.7 259.109L311.793 273.743L317.663 272.503L314.57 257.868L308.7 259.109ZM313.834 270.259C312.965 270.531 311.673 270.864 309.917 271.257L311.23 277.112C313.044 276.705 314.522 276.33 315.623 275.986L313.834 270.259ZM309.87 271.268C308.339 271.638 306.381 271.884 303.956 271.971L304.173 277.968C306.856 277.871 309.238 277.593 311.277 277.101L309.87 271.268ZM303.947 271.972C299.537 272.144 295.822 271.55 292.726 270.296L290.473 275.857C294.518 277.496 299.112 278.165 304.181 277.967L303.947 271.972ZM292.735 270.3C289.731 269.072 287.474 267.211 285.856 264.708L280.817 267.965C283.138 271.556 286.39 274.188 290.465 275.854L292.735 270.3ZM285.856 264.708C284.282 262.273 283.4 259.041 283.428 254.815L277.428 254.776C277.394 259.845 278.452 264.307 280.817 267.965L285.856 264.708ZM283.428 254.795V186.102H277.428V254.795H283.428Z" fill="black" mask="url(#path-2-outside-1_1469_1048)"/>
<path d="M331 279.35H436V174.35H331V279.35Z" fill="#FBFDFC"/>
<mask id="path-5-outside-2_1469_1048" maskUnits="userSpaceOnUse" x="453" y="176" width="309" height="101" fill="black">
<rect fill="white" x="453" y="176" width="309" height="101"/>
<path d="M489.733 274H456.217V179.455H490.01C499.52 179.455 507.706 181.347 514.57 185.133C521.433 188.888 526.711 194.289 530.404 201.337C534.128 208.384 535.99 216.817 535.99 226.635C535.99 236.483 534.128 244.947 530.404 252.026C526.711 259.104 521.402 264.536 514.477 268.322C507.583 272.107 499.335 274 489.733 274ZM476.207 256.873H488.902C494.811 256.873 499.781 255.826 503.813 253.734C507.876 251.61 510.923 248.332 512.954 243.901C515.016 239.438 516.047 233.683 516.047 226.635C516.047 219.649 515.016 213.94 512.954 209.508C510.923 205.076 507.891 201.814 503.859 199.721C499.828 197.628 494.857 196.582 488.948 196.582H476.207V256.873ZM542.88 195.935V179.455H620.529V195.935H591.584V274H571.825V195.935H542.88ZM654.599 274L627.546 179.455H649.382L665.032 245.147H665.817L683.083 179.455H701.779L718.999 245.286H719.83L735.48 179.455H757.316L730.263 274H710.781L692.777 212.185H692.039L674.08 274H654.599Z"/>
</mask>
<path d="M489.733 274H456.217V179.455H490.01C499.52 179.455 507.706 181.347 514.57 185.133C521.433 188.888 526.711 194.289 530.404 201.337C534.128 208.384 535.99 216.817 535.99 226.635C535.99 236.483 534.128 244.947 530.404 252.026C526.711 259.104 521.402 264.536 514.477 268.322C507.583 272.107 499.335 274 489.733 274ZM476.207 256.873H488.902C494.811 256.873 499.781 255.826 503.813 253.734C507.876 251.61 510.923 248.332 512.954 243.901C515.016 239.438 516.047 233.683 516.047 226.635C516.047 219.649 515.016 213.94 512.954 209.508C510.923 205.076 507.891 201.814 503.859 199.721C499.828 197.628 494.857 196.582 488.948 196.582H476.207V256.873ZM542.88 195.935V179.455H620.529V195.935H591.584V274H571.825V195.935H542.88ZM654.599 274L627.546 179.455H649.382L665.032 245.147H665.817L683.083 179.455H701.779L718.999 245.286H719.83L735.48 179.455H757.316L730.263 274H710.781L692.777 212.185H692.039L674.08 274H654.599Z" fill="#F86B00"/>
<path d="M456.217 274H453.217V277H456.217V274ZM456.217 179.455V176.455H453.217V179.455H456.217ZM514.57 185.133L513.121 187.76L513.13 187.765L514.57 185.133ZM530.404 201.337L527.747 202.729L527.752 202.738L530.404 201.337ZM530.404 252.026L527.749 250.629L527.744 250.638L530.404 252.026ZM514.477 268.322L513.038 265.689L513.033 265.692L514.477 268.322ZM476.207 256.873H473.207V259.873H476.207V256.873ZM503.813 253.734L505.195 256.396L505.203 256.392L503.813 253.734ZM512.954 243.901L510.23 242.642L510.227 242.651L512.954 243.901ZM512.954 209.508L510.227 210.758L510.23 210.766L510.234 210.773L512.954 209.508ZM503.859 199.721L505.242 197.058L505.242 197.058L503.859 199.721ZM476.207 196.582V193.582H473.207V196.582H476.207ZM489.733 271H456.217V277H489.733V271ZM459.217 274V179.455H453.217V274H459.217ZM456.217 182.455H490.01V176.455H456.217V182.455ZM490.01 182.455C499.121 182.455 506.787 184.266 513.121 187.76L516.019 182.506C508.626 178.429 499.919 176.455 490.01 176.455V182.455ZM513.13 187.765C519.464 191.23 524.323 196.196 527.747 202.729L533.061 199.944C529.099 192.382 523.401 186.545 516.009 182.501L513.13 187.765ZM527.752 202.738C531.2 209.265 532.99 217.194 532.99 226.635H538.99C538.99 216.44 537.056 207.504 533.057 199.935L527.752 202.738ZM532.99 226.635C532.99 236.108 531.2 244.069 527.749 250.629L533.059 253.422C537.056 245.825 538.99 236.859 538.99 226.635H532.99ZM527.744 250.638C524.323 257.196 519.435 262.192 513.038 265.689L515.916 270.954C523.369 266.88 529.099 261.012 533.064 253.413L527.744 250.638ZM513.033 265.692C506.67 269.186 498.941 271 489.733 271V277C499.729 277 508.497 275.028 515.921 270.951L513.033 265.692ZM476.207 259.873H488.902V253.873H476.207V259.873ZM488.902 259.873C495.152 259.873 500.628 258.767 505.195 256.396L502.431 251.071C498.935 252.886 494.47 253.873 488.902 253.873V259.873ZM505.203 256.392C509.894 253.94 513.391 250.146 515.681 245.151L510.227 242.651C508.454 246.519 505.857 249.28 502.423 251.075L505.203 256.392ZM515.677 245.159C517.983 240.169 519.047 233.943 519.047 226.635H513.047C513.047 233.423 512.049 238.707 510.231 242.642L515.677 245.159ZM519.047 226.635C519.047 219.386 517.982 213.203 515.674 208.242L510.234 210.773C512.05 214.676 513.047 219.912 513.047 226.635H519.047ZM515.681 208.258C513.393 203.266 509.911 199.482 505.242 197.058L502.477 202.384C505.871 204.145 508.452 206.886 510.227 210.758L515.681 208.258ZM505.242 197.058C500.674 194.687 495.198 193.582 488.948 193.582V199.582C494.516 199.582 498.981 200.569 502.477 202.384L505.242 197.058ZM488.948 193.582H476.207V199.582H488.948V193.582ZM473.207 196.582V256.873H479.207V196.582H473.207ZM542.88 195.935H539.88V198.935H542.88V195.935ZM542.88 179.455V176.455H539.88V179.455H542.88ZM620.529 179.455H623.529V176.455H620.529V179.455ZM620.529 195.935V198.935H623.529V195.935H620.529ZM591.584 195.935V192.935H588.584V195.935H591.584ZM591.584 274V277H594.584V274H591.584ZM571.825 274H568.825V277H571.825V274ZM571.825 195.935H574.825V192.935H571.825V195.935ZM545.88 195.935V179.455H539.88V195.935H545.88ZM542.88 182.455H620.529V176.455H542.88V182.455ZM617.529 179.455V195.935H623.529V179.455H617.529ZM620.529 192.935H591.584V198.935H620.529V192.935ZM588.584 195.935V274H594.584V195.935H588.584ZM591.584 271H571.825V277H591.584V271ZM574.825 274V195.935H568.825V274H574.825ZM571.825 192.935H542.88V198.935H571.825V192.935ZM654.599 274L651.715 274.825L652.337 277H654.599V274ZM627.546 179.455V176.455H623.568L624.662 180.28L627.546 179.455ZM649.382 179.455L652.301 178.759L651.752 176.455H649.382V179.455ZM665.032 245.147L662.114 245.842L662.663 248.147H665.032V245.147ZM665.817 245.147V248.147H668.13L668.718 245.91L665.817 245.147ZM683.083 179.455V176.455H680.769L680.181 178.692L683.083 179.455ZM701.779 179.455L704.682 178.695L704.096 176.455H701.779V179.455ZM718.999 245.286L716.096 246.045L716.683 248.286H718.999V245.286ZM719.83 245.286V248.286H722.2L722.748 245.979L719.83 245.286ZM735.48 179.455V176.455H733.109L732.561 178.761L735.48 179.455ZM757.316 179.455L760.2 180.28L761.294 176.455H757.316V179.455ZM730.263 274V277H732.525L733.147 274.825L730.263 274ZM710.781 274L707.901 274.839L708.531 277H710.781V274ZM692.777 212.185L695.657 211.346L695.028 209.185H692.777V212.185ZM692.039 212.185V209.185H689.786L689.158 211.348L692.039 212.185ZM674.08 274V277H676.333L676.961 274.837L674.08 274ZM657.483 273.175L630.431 178.629L624.662 180.28L651.715 274.825L657.483 273.175ZM627.546 182.455H649.382V176.455H627.546V182.455ZM646.464 180.15L662.114 245.842L667.95 244.452L652.301 178.759L646.464 180.15ZM665.032 248.147H665.817V242.147H665.032V248.147ZM668.718 245.91L685.984 180.217L680.181 178.692L662.915 244.384L668.718 245.91ZM683.083 182.455H701.779V176.455H683.083V182.455ZM698.877 180.214L716.096 246.045L721.901 244.526L704.682 178.695L698.877 180.214ZM718.999 248.286H719.83V242.286H718.999V248.286ZM722.748 245.979L738.398 180.148L732.561 178.761L716.911 244.592L722.748 245.979ZM735.48 182.455H757.316V176.455H735.48V182.455ZM754.431 178.629L727.379 273.175L733.147 274.825L760.2 180.28L754.431 178.629ZM730.263 271H710.781V277H730.263V271ZM713.662 273.161L695.657 211.346L689.897 213.024L707.901 274.839L713.662 273.161ZM692.777 209.185H692.039V215.185H692.777V209.185ZM689.158 211.348L671.2 273.163L676.961 274.837L694.919 213.022L689.158 211.348ZM674.08 271H654.599V277H674.08V271Z" fill="#00099F" mask="url(#path-5-outside-2_1469_1048)"/>
</g>
<defs>
<linearGradient id="paint0_linear_1469_1048" x1="155" y1="-1" x2="611" y2="455" gradientUnits="userSpaceOnUse">
<stop stop-color="#036BBE" stop-opacity="0.5"/>
<stop offset="1" stop-color="#02177D"/>
</linearGradient>
<clipPath id="clip0_1469_1048">
<rect width="760" height="458" fill="white"/>
</clipPath>
</defs>
</svg>
